<svg width="325" height="21" viewBox="0 0 325 21" fill="none" xmlns="http://www.w3.org/2000/svg">
<path d="M8.5166 11.7529H9.83496C9.83496 12.6729 9.57129 13.3643 9.04395 13.8271C8.52246 14.2842 7.81055 14.5127 6.9082 14.5127C6.28125 14.5127 5.73926 14.3691 5.28223 14.082C4.83105 13.7949 4.47949 13.3965 4.22754 12.8867C3.98145 12.377 3.8584 11.7852 3.8584 11.1113V10.083C3.8584 9.40918 3.98145 8.81738 4.22754 8.30762C4.47949 7.79785 4.83105 7.39941 5.28223 7.1123C5.73926 6.8252 6.28125 6.68164 6.9082 6.68164C7.81055 6.68164 8.52539 6.91309 9.05273 7.37598C9.58008 7.83301 9.84375 8.52148 9.84375 9.44141H8.52539C8.52539 8.86719 8.3877 8.45703 8.1123 8.21094C7.84277 7.95898 7.44141 7.83301 6.9082 7.83301C6.52734 7.83301 6.20508 7.92969 5.94141 8.12305C5.68359 8.31055 5.4873 8.57422 5.35254 8.91406C5.22363 9.25391 5.15918 9.64062 5.15918 10.0742V11.1113C5.15918 11.5508 5.22363 11.9404 5.35254 12.2803C5.4873 12.6201 5.68359 12.8867 5.94141 13.0801C6.20508 13.2676 6.52734 13.3613 6.9082 13.3613C7.44141 13.3613 7.84277 13.2383 8.1123 12.9922C8.38184 12.7461 8.5166 12.333 8.5166 11.7529ZM1.81934 10.5928C1.81934 11.3721 1.9541 12.0986 2.22363 12.7725C2.49316 13.4404 2.86523 14.0264 3.33984 14.5303C3.82031 15.0283 4.37402 15.418 5.00098 15.6992C5.63379 15.9746 6.31055 16.1123 7.03125 16.1123C7.74609 16.1123 8.41699 15.9746 9.04395 15.6992C9.6709 15.418 10.2217 15.0283 10.6963 14.5303C11.1768 14.0264 11.5518 13.4404 11.8213 12.7725C12.0908 12.0986 12.2256 11.3721 12.2256 10.5928C12.2256 9.81348 12.0908 9.08984 11.8213 8.42188C11.5518 7.75391 11.1768 7.1709 10.6963 6.67285C10.2217 6.1748 9.6709 5.78809 9.04395 5.5127C8.41699 5.23145 7.74609 5.09082 7.03125 5.09082C6.31055 5.09082 5.63379 5.23145 5.00098 5.5127C4.37402 5.78809 3.82031 6.1748 3.33984 6.67285C2.86523 7.1709 2.49316 7.75391 2.22363 8.42188C1.9541 9.08984 1.81934 9.81348 1.81934 10.5928ZM0.791016 10.5928C0.791016 9.66113 0.952148 8.79688 1.27441 8C1.59668 7.20312 2.04492 6.50879 2.61914 5.91699C3.19336 5.31934 3.85547 4.85645 4.60547 4.52832C5.36133 4.19434 6.16992 4.02734 7.03125 4.02734C7.89258 4.02734 8.69824 4.19434 9.44824 4.52832C10.2041 4.85645 10.8662 5.31934 11.4346 5.91699C12.0088 6.50879 12.457 7.20312 12.7793 8C13.1016 8.79688 13.2627 9.66113 13.2627 10.5928C13.2627 11.5244 13.1016 12.3887 12.7793 13.1855C12.457 13.9824 12.0088 14.6826 11.4346 15.2861C10.8662 15.8838 10.2041 16.3496 9.44824 16.6836C8.69824 17.0176 7.89258 17.1846 7.03125 17.1846C6.16992 17.1846 5.36133 17.0176 4.60547 16.6836C3.85547 16.3496 3.19336 15.8838 2.61914 15.2861C2.04492 14.6826 1.59668 13.9824 1.27441 13.1855C0.952148 12.3887 0.791016 11.5244 0.791016 10.5928ZM24.7764 4.20312V17H22.5879V4.20312H24.7764ZM28.793 4.20312V5.96094H18.6064V4.20312H28.793ZM33.6182 17.1758C32.915 17.1758 32.2793 17.0615 31.7109 16.833C31.1484 16.5986 30.668 16.2734 30.2695 15.8574C29.877 15.4414 29.5752 14.9521 29.3643 14.3896C29.1533 13.8271 29.0479 13.2207 29.0479 12.5703V12.2188C29.0479 11.4746 29.1562 10.8008 29.373 10.1973C29.5898 9.59375 29.8916 9.07812 30.2783 8.65039C30.665 8.2168 31.1221 7.88574 31.6494 7.65723C32.1768 7.42871 32.748 7.31445 33.3633 7.31445C34.043 7.31445 34.6377 7.42871 35.1475 7.65723C35.6572 7.88574 36.0791 8.20801 36.4131 8.62402C36.7529 9.03418 37.0049 9.52344 37.1689 10.0918C37.3389 10.6602 37.4238 11.2871 37.4238 11.9727V12.8779H30.0762V11.3574H35.332V11.1904C35.3203 10.8096 35.2441 10.4521 35.1035 10.1182C34.9688 9.78418 34.7607 9.51465 34.4795 9.30957C34.1982 9.10449 33.8232 9.00195 33.3545 9.00195C33.0029 9.00195 32.6895 9.07812 32.4141 9.23047C32.1445 9.37695 31.9189 9.59082 31.7373 9.87207C31.5557 10.1533 31.415 10.4932 31.3154 10.8916C31.2217 11.2842 31.1748 11.7266 31.1748 12.2188V12.5703C31.1748 12.9863 31.2305 13.373 31.3418 13.7305C31.459 14.082 31.6289 14.3896 31.8516 14.6533C32.0742 14.917 32.3438 15.125 32.6602 15.2773C32.9766 15.4238 33.3369 15.4971 33.7412 15.4971C34.251 15.4971 34.7051 15.3945 35.1035 15.1895C35.502 14.9844 35.8477 14.6943 36.1406 14.3193L37.2568 15.4004C37.0518 15.6992 36.7852 15.9863 36.457 16.2617C36.1289 16.5312 35.7275 16.751 35.2529 16.9209C34.7842 17.0908 34.2393 17.1758 33.6182 17.1758ZM41.3438 3.5V17H39.2168V3.5H41.3438ZM47.8564 17.1758C47.1533 17.1758 46.5176 17.0615 45.9492 16.833C45.3867 16.5986 44.9062 16.2734 44.5078 15.8574C44.1152 15.4414 43.8135 14.9521 43.6025 14.3896C43.3916 13.8271 43.2861 13.2207 43.2861 12.5703V12.2188C43.2861 11.4746 43.3945 10.8008 43.6113 10.1973C43.8281 9.59375 44.1299 9.07812 44.5166 8.65039C44.9033 8.2168 45.3604 7.88574 45.8877 7.65723C46.415 7.42871 46.9863 7.31445 47.6016 7.31445C48.2812 7.31445 48.876 7.42871 49.3857 7.65723C49.8955 7.88574 50.3174 8.20801 50.6514 8.62402C50.9912 9.03418 51.2432 9.52344 51.4072 10.0918C51.5771 10.6602 51.6621 11.2871 51.6621 11.9727V12.8779H44.3145V11.3574H49.5703V11.1904C49.5586 10.8096 49.4824 10.4521 49.3418 10.1182C49.207 9.78418 48.999 9.51465 48.7178 9.30957C48.4365 9.10449 48.0615 9.00195 47.5928 9.00195C47.2412 9.00195 46.9277 9.07812 46.6523 9.23047C46.3828 9.37695 46.1572 9.59082 45.9756 9.87207C45.7939 10.1533 45.6533 10.4932 45.5537 10.8916C45.46 11.2842 45.4131 11.7266 45.4131 12.2188V12.5703C45.4131 12.9863 45.4688 13.373 45.5801 13.7305C45.6973 14.082 45.8672 14.3896 46.0898 14.6533C46.3125 14.917 46.582 15.125 46.8984 15.2773C47.2148 15.4238 47.5752 15.4971 47.9795 15.4971C48.4893 15.4971 48.9434 15.3945 49.3418 15.1895C49.7402 14.9844 50.0859 14.6943 50.3789 14.3193L51.4951 15.4004C51.29 15.6992 51.0234 15.9863 50.6953 16.2617C50.3672 16.5312 49.9658 16.751 49.4912 16.9209C49.0225 17.0908 48.4775 17.1758 47.8564 17.1758ZM59.4053 7.49023H61.3301V16.7363C61.3301 17.5918 61.1484 18.3184 60.7852 18.916C60.4219 19.5137 59.915 19.9678 59.2646 20.2783C58.6143 20.5947 57.8613 20.7529 57.0059 20.7529C56.6426 20.7529 56.2383 20.7002 55.793 20.5947C55.3535 20.4893 54.9258 20.3193 54.5098 20.085C54.0996 19.8564 53.7568 19.5547 53.4814 19.1797L54.4746 17.9316C54.8145 18.3359 55.1895 18.6318 55.5996 18.8193C56.0098 19.0068 56.4404 19.1006 56.8916 19.1006C57.3779 19.1006 57.791 19.0098 58.1309 18.8281C58.4766 18.6523 58.7432 18.3916 58.9307 18.0459C59.1182 17.7002 59.2119 17.2783 59.2119 16.7803V9.64355L59.4053 7.49023ZM52.9453 12.3506V12.166C52.9453 11.4453 53.0332 10.7891 53.209 10.1973C53.3848 9.59961 53.6367 9.08691 53.9648 8.65918C54.293 8.22559 54.6914 7.89453 55.1602 7.66602C55.6289 7.43164 56.1592 7.31445 56.751 7.31445C57.3662 7.31445 57.8906 7.42578 58.3242 7.64844C58.7637 7.87109 59.1299 8.19043 59.4229 8.60645C59.7158 9.0166 59.9443 9.50879 60.1084 10.083C60.2783 10.6514 60.4043 11.2842 60.4863 11.9814V12.5703C60.4102 13.25 60.2812 13.8711 60.0996 14.4336C59.918 14.9961 59.6777 15.4824 59.3789 15.8926C59.0801 16.3027 58.7109 16.6191 58.2715 16.8418C57.8379 17.0645 57.3252 17.1758 56.7334 17.1758C56.1533 17.1758 55.6289 17.0557 55.1602 16.8154C54.6973 16.5752 54.2988 16.2383 53.9648 15.8047C53.6367 15.3711 53.3848 14.8613 53.209 14.2754C53.0332 13.6836 52.9453 13.042 52.9453 12.3506ZM55.0635 12.166V12.3506C55.0635 12.7842 55.1045 13.1885 55.1865 13.5635C55.2744 13.9385 55.4062 14.2695 55.582 14.5566C55.7637 14.8379 55.9922 15.0605 56.2676 15.2246C56.5488 15.3828 56.8799 15.4619 57.2607 15.4619C57.7588 15.4619 58.166 15.3564 58.4824 15.1455C58.8047 14.9346 59.0508 14.6504 59.2207 14.293C59.3965 13.9297 59.5195 13.5254 59.5898 13.0801V11.4893C59.5547 11.1436 59.4814 10.8213 59.3701 10.5225C59.2646 10.2236 59.1211 9.96289 58.9395 9.74023C58.7578 9.51172 58.5293 9.33594 58.2539 9.21289C57.9785 9.08398 57.6533 9.01953 57.2783 9.01953C56.8975 9.01953 56.5664 9.10156 56.2852 9.26562C56.0039 9.42969 55.7725 9.65527 55.5908 9.94238C55.415 10.2295 55.2832 10.5635 55.1953 10.9443C55.1074 11.3252 55.0635 11.7324 55.0635 12.166ZM65.6543 9.30078V17H63.5361V7.49023H65.5576L65.6543 9.30078ZM68.5635 7.42871L68.5459 9.39746C68.417 9.37402 68.2764 9.35645 68.124 9.34473C67.9775 9.33301 67.8311 9.32715 67.6846 9.32715C67.3213 9.32715 67.002 9.37988 66.7266 9.48535C66.4512 9.58496 66.2197 9.73145 66.0322 9.9248C65.8506 10.1123 65.71 10.3408 65.6104 10.6104C65.5107 10.8799 65.4521 11.1816 65.4346 11.5156L64.9512 11.5508C64.9512 10.9531 65.0098 10.3994 65.127 9.88965C65.2441 9.37988 65.4199 8.93164 65.6543 8.54492C65.8945 8.1582 66.1934 7.85645 66.5508 7.63965C66.9141 7.42285 67.333 7.31445 67.8076 7.31445C67.9365 7.31445 68.0742 7.32617 68.2207 7.34961C68.373 7.37305 68.4873 7.39941 68.5635 7.42871ZM74.9355 15.0928V10.5576C74.9355 10.2178 74.874 9.9248 74.751 9.67871C74.6279 9.43262 74.4404 9.24219 74.1885 9.10742C73.9424 8.97266 73.6318 8.90527 73.2568 8.90527C72.9111 8.90527 72.6123 8.96387 72.3604 9.08105C72.1084 9.19824 71.9121 9.35645 71.7715 9.55566C71.6309 9.75488 71.5605 9.98047 71.5605 10.2324H69.4512C69.4512 9.85742 69.542 9.49414 69.7236 9.14258C69.9053 8.79102 70.1689 8.47754 70.5146 8.20215C70.8604 7.92676 71.2734 7.70996 71.7539 7.55176C72.2344 7.39355 72.7734 7.31445 73.3711 7.31445C74.0859 7.31445 74.7188 7.43457 75.2695 7.6748C75.8262 7.91504 76.2627 8.27832 76.5791 8.76465C76.9014 9.24512 77.0625 9.84863 77.0625 10.5752V14.8027C77.0625 15.2363 77.0918 15.626 77.1504 15.9717C77.2148 16.3115 77.3057 16.6074 77.4229 16.8594V17H75.252C75.1523 16.7715 75.0732 16.4814 75.0146 16.1299C74.9619 15.7725 74.9355 15.4268 74.9355 15.0928ZM75.2432 11.2168L75.2607 12.5264H73.7402C73.3477 12.5264 73.002 12.5645 72.7031 12.6406C72.4043 12.7109 72.1553 12.8164 71.9561 12.957C71.7568 13.0977 71.6074 13.2676 71.5078 13.4668C71.4082 13.666 71.3584 13.8916 71.3584 14.1436C71.3584 14.3955 71.417 14.627 71.5342 14.8379C71.6514 15.043 71.8213 15.2041 72.0439 15.3213C72.2725 15.4385 72.5479 15.4971 72.8701 15.4971C73.3037 15.4971 73.6816 15.4092 74.0039 15.2334C74.332 15.0518 74.5898 14.832 74.7773 14.5742C74.9648 14.3105 75.0645 14.0615 75.0762 13.8271L75.7617 14.7676C75.6914 15.0078 75.5713 15.2656 75.4014 15.541C75.2314 15.8164 75.0088 16.0801 74.7334 16.332C74.4639 16.5781 74.1387 16.7803 73.7578 16.9385C73.3828 17.0967 72.9492 17.1758 72.457 17.1758C71.8359 17.1758 71.2822 17.0527 70.7959 16.8066C70.3096 16.5547 69.9287 16.2178 69.6533 15.7959C69.3779 15.3682 69.2402 14.8848 69.2402 14.3457C69.2402 13.8418 69.334 13.3965 69.5215 13.0098C69.7148 12.6172 69.9961 12.2891 70.3652 12.0254C70.7402 11.7617 71.1973 11.5625 71.7363 11.4277C72.2754 11.2871 72.8906 11.2168 73.582 11.2168H75.2432ZM81.4043 9.31836V20.6562H79.2861V7.49023H81.2373L81.4043 9.31836ZM87.6006 12.1572V12.3418C87.6006 13.0332 87.5186 13.6748 87.3545 14.2666C87.1963 14.8525 86.959 15.3652 86.6426 15.8047C86.332 16.2383 85.9482 16.5752 85.4912 16.8154C85.0342 17.0557 84.5068 17.1758 83.9092 17.1758C83.3174 17.1758 82.7988 17.0674 82.3535 16.8506C81.9141 16.6279 81.542 16.3145 81.2373 15.9102C80.9326 15.5059 80.6865 15.0312 80.499 14.4863C80.3174 13.9355 80.1885 13.332 80.1123 12.6758V11.9639C80.1885 11.2666 80.3174 10.6338 80.499 10.0654C80.6865 9.49707 80.9326 9.00781 81.2373 8.59766C81.542 8.1875 81.9141 7.87109 82.3535 7.64844C82.793 7.42578 83.3057 7.31445 83.8916 7.31445C84.4893 7.31445 85.0195 7.43164 85.4824 7.66602C85.9453 7.89453 86.335 8.22266 86.6514 8.65039C86.9678 9.07227 87.2051 9.58203 87.3633 10.1797C87.5215 10.7715 87.6006 11.4307 87.6006 12.1572ZM85.4824 12.3418V12.1572C85.4824 11.7178 85.4414 11.3105 85.3594 10.9355C85.2773 10.5547 85.1484 10.2207 84.9727 9.93359C84.7969 9.64648 84.5713 9.42383 84.2959 9.26562C84.0264 9.10156 83.7012 9.01953 83.3203 9.01953C82.9453 9.01953 82.623 9.08398 82.3535 9.21289C82.084 9.33594 81.8584 9.50879 81.6768 9.73145C81.4951 9.9541 81.3545 10.2148 81.2549 10.5137C81.1553 10.8066 81.085 11.126 81.0439 11.4717V13.1768C81.1143 13.5986 81.2344 13.9854 81.4043 14.3369C81.5742 14.6885 81.8145 14.9697 82.125 15.1807C82.4414 15.3857 82.8457 15.4883 83.3379 15.4883C83.7188 15.4883 84.0439 15.4062 84.3135 15.2422C84.583 15.0781 84.8027 14.8525 84.9727 14.5654C85.1484 14.2725 85.2773 13.9355 85.3594 13.5547C85.4414 13.1738 85.4824 12.7695 85.4824 12.3418ZM91.4941 3.5V17H89.3848V3.5H91.4941ZM91.125 11.8936L90.4395 11.8848C90.4453 11.2285 90.5361 10.6221 90.7119 10.0654C90.8936 9.50879 91.1455 9.02539 91.4678 8.61523C91.7959 8.19922 92.1885 7.87988 92.6455 7.65723C93.1025 7.42871 93.6094 7.31445 94.166 7.31445C94.6348 7.31445 95.0566 7.37891 95.4316 7.50781C95.8125 7.63672 96.1406 7.84473 96.416 8.13184C96.6914 8.41309 96.8994 8.78223 97.04 9.23926C97.1865 9.69043 97.2598 10.2412 97.2598 10.8916V17H95.1328V10.874C95.1328 10.417 95.0654 10.0537 94.9307 9.78418C94.8018 9.51465 94.6113 9.32129 94.3594 9.2041C94.1074 9.08105 93.7998 9.01953 93.4365 9.01953C93.0557 9.01953 92.7188 9.0957 92.4258 9.24805C92.1387 9.40039 91.8984 9.6084 91.7051 9.87207C91.5117 10.1357 91.3652 10.4404 91.2656 10.7861C91.1719 11.1318 91.125 11.501 91.125 11.8936ZM99.4922 15.9453C99.4922 15.6172 99.6035 15.3418 99.8262 15.1191C100.049 14.8906 100.351 14.7764 100.731 14.7764C101.118 14.7764 101.42 14.8906 101.637 15.1191C101.859 15.3418 101.971 15.6172 101.971 15.9453C101.971 16.2734 101.859 16.5488 101.637 16.7715C101.42 16.9941 101.118 17.1055 100.731 17.1055C100.351 17.1055 100.049 16.9941 99.8262 16.7715C99.6035 16.5488 99.4922 16.2734 99.4922 15.9453ZM117.352 15.3125V17H108.773V15.5498L112.939 11.0059C113.396 10.4902 113.757 10.0449 114.021 9.66992C114.284 9.29492 114.469 8.95801 114.574 8.65918C114.686 8.35449 114.741 8.05859 114.741 7.77148C114.741 7.36719 114.665 7.0127 114.513 6.70801C114.366 6.39746 114.149 6.1543 113.862 5.97852C113.575 5.79687 113.227 5.70605 112.816 5.70605C112.342 5.70605 111.943 5.80859 111.621 6.01367C111.299 6.21875 111.056 6.50293 110.892 6.86621C110.728 7.22363 110.646 7.63379 110.646 8.09668H108.527C108.527 7.35254 108.697 6.67285 109.037 6.05762C109.377 5.43652 109.869 4.94434 110.514 4.58105C111.158 4.21191 111.935 4.02734 112.843 4.02734C113.698 4.02734 114.425 4.1709 115.022 4.45801C115.62 4.74512 116.074 5.15234 116.385 5.67969C116.701 6.20703 116.859 6.83105 116.859 7.55176C116.859 7.9502 116.795 8.3457 116.666 8.73828C116.537 9.13086 116.353 9.52344 116.112 9.91602C115.878 10.3027 115.6 10.6924 115.277 11.085C114.955 11.4717 114.601 11.8643 114.214 12.2627L111.445 15.3125H117.352ZM127.345 9.5293V11.6211C127.345 12.623 127.245 13.4785 127.046 14.1875C126.853 14.8906 126.571 15.4619 126.202 15.9014C125.833 16.3408 125.391 16.6631 124.875 16.8682C124.365 17.0732 123.794 17.1758 123.161 17.1758C122.657 17.1758 122.188 17.1113 121.755 16.9824C121.327 16.8535 120.94 16.6514 120.595 16.376C120.249 16.1006 119.953 15.7461 119.707 15.3125C119.467 14.873 119.279 14.3486 119.145 13.7393C119.016 13.1299 118.951 12.4238 118.951 11.6211V9.5293C118.951 8.52148 119.051 7.67188 119.25 6.98047C119.449 6.2832 119.733 5.71777 120.103 5.28418C120.472 4.84473 120.911 4.52539 121.421 4.32617C121.937 4.12695 122.511 4.02734 123.144 4.02734C123.653 4.02734 124.122 4.0918 124.55 4.2207C124.983 4.34375 125.37 4.54004 125.71 4.80957C126.056 5.0791 126.349 5.43066 126.589 5.86426C126.835 6.29199 127.022 6.81055 127.151 7.41992C127.28 8.02344 127.345 8.72656 127.345 9.5293ZM125.227 11.9199V9.21289C125.227 8.70312 125.197 8.25488 125.139 7.86816C125.08 7.47559 124.992 7.14453 124.875 6.875C124.764 6.59961 124.623 6.37695 124.453 6.20703C124.283 6.03125 124.09 5.90527 123.873 5.8291C123.656 5.74707 123.413 5.70605 123.144 5.70605C122.815 5.70605 122.522 5.77051 122.265 5.89941C122.007 6.02246 121.79 6.22168 121.614 6.49707C121.438 6.77246 121.304 7.13574 121.21 7.58691C121.122 8.03223 121.078 8.57422 121.078 9.21289V11.9199C121.078 12.4355 121.107 12.8896 121.166 13.2822C121.225 13.6748 121.312 14.0117 121.43 14.293C121.547 14.5684 121.688 14.7969 121.852 14.9785C122.021 15.1543 122.215 15.2832 122.432 15.3652C122.654 15.4473 122.897 15.4883 123.161 15.4883C123.495 15.4883 123.791 15.4238 124.049 15.2949C124.307 15.166 124.523 14.9609 124.699 14.6797C124.875 14.3926 125.007 14.0205 125.095 13.5635C125.183 13.1064 125.227 12.5586 125.227 11.9199ZM137.812 15.3125V17H129.234V15.5498L133.4 11.0059C133.857 10.4902 134.218 10.0449 134.481 9.66992C134.745 9.29492 134.93 8.95801 135.035 8.65918C135.146 8.35449 135.202 8.05859 135.202 7.77148C135.202 7.36719 135.126 7.0127 134.974 6.70801C134.827 6.39746 134.61 6.1543 134.323 5.97852C134.036 5.79687 133.688 5.70605 133.277 5.70605C132.803 5.70605 132.404 5.80859 132.082 6.01367C131.76 6.21875 131.517 6.50293 131.353 6.86621C131.188 7.22363 131.106 7.63379 131.106 8.09668H128.988C128.988 7.35254 129.158 6.67285 129.498 6.05762C129.838 5.43652 130.33 4.94434 130.975 4.58105C131.619 4.21191 132.396 4.02734 133.304 4.02734C134.159 4.02734 134.886 4.1709 135.483 4.45801C136.081 4.74512 136.535 5.15234 136.846 5.67969C137.162 6.20703 137.32 6.83105 137.32 7.55176C137.32 7.9502 137.256 8.3457 137.127 8.73828C136.998 9.13086 136.813 9.52344 136.573 9.91602C136.339 10.3027 136.061 10.6924 135.738 11.085C135.416 11.4717 135.062 11.8643 134.675 12.2627L131.906 15.3125H137.812ZM147.806 9.5293V11.6211C147.806 12.623 147.706 13.4785 147.507 14.1875C147.313 14.8906 147.032 15.4619 146.663 15.9014C146.294 16.3408 145.852 16.6631 145.336 16.8682C144.826 17.0732 144.255 17.1758 143.622 17.1758C143.118 17.1758 142.649 17.1113 142.216 16.9824C141.788 16.8535 141.401 16.6514 141.056 16.376C140.71 16.1006 140.414 15.7461 140.168 15.3125C139.928 14.873 139.74 14.3486 139.605 13.7393C139.477 13.1299 139.412 12.4238 139.412 11.6211V9.5293C139.412 8.52148 139.512 7.67188 139.711 6.98047C139.91 6.2832 140.194 5.71777 140.563 5.28418C140.933 4.84473 141.372 4.52539 141.882 4.32617C142.397 4.12695 142.972 4.02734 143.604 4.02734C144.114 4.02734 144.583 4.0918 145.011 4.2207C145.444 4.34375 145.831 4.54004 146.171 4.80957C146.517 5.0791 146.81 5.43066 147.05 5.86426C147.296 6.29199 147.483 6.81055 147.612 7.41992C147.741 8.02344 147.806 8.72656 147.806 9.5293ZM145.688 11.9199V9.21289C145.688 8.70312 145.658 8.25488 145.6 7.86816C145.541 7.47559 145.453 7.14453 145.336 6.875C145.225 6.59961 145.084 6.37695 144.914 6.20703C144.744 6.03125 144.551 5.90527 144.334 5.8291C144.117 5.74707 143.874 5.70605 143.604 5.70605C143.276 5.70605 142.983 5.77051 142.726 5.89941C142.468 6.02246 142.251 6.22168 142.075 6.49707C141.899 6.77246 141.765 7.13574 141.671 7.58691C141.583 8.03223 141.539 8.57422 141.539 9.21289V11.9199C141.539 12.4355 141.568 12.8896 141.627 13.2822C141.686 13.6748 141.773 14.0117 141.891 14.293C142.008 14.5684 142.148 14.7969 142.312 14.9785C142.482 15.1543 142.676 15.2832 142.893 15.3652C143.115 15.4473 143.358 15.4883 143.622 15.4883C143.956 15.4883 144.252 15.4238 144.51 15.2949C144.768 15.166 144.984 14.9609 145.16 14.6797C145.336 14.3926 145.468 14.0205 145.556 13.5635C145.644 13.1064 145.688 12.5586 145.688 11.9199ZM166.254 9.81934V11.5156H154.292V9.81934H166.254ZM177.847 5.9082L174.023 17H171.712L176.528 4.20312H178.005L177.847 5.9082ZM181.046 17L177.214 5.9082L177.047 4.20312H178.532L183.366 17H181.046ZM180.861 12.2539V14.0029H173.9V12.2539H180.861ZM186.855 3.5V17H184.729V3.5H186.855ZM191.443 3.5V17H189.316V3.5H191.443ZM200.373 9.30078V17H198.255V7.49023H200.276L200.373 9.30078ZM203.282 7.42871L203.265 9.39746C203.136 9.37402 202.995 9.35645 202.843 9.34473C202.696 9.33301 202.55 9.32715 202.403 9.32715C202.04 9.32715 201.721 9.37988 201.445 9.48535C201.17 9.58496 200.938 9.73145 200.751 9.9248C200.569 10.1123 200.429 10.3408 200.329 10.6104C200.229 10.8799 200.171 11.1816 200.153 11.5156L199.67 11.5508C199.67 10.9531 199.729 10.3994 199.846 9.88965C199.963 9.37988 200.139 8.93164 200.373 8.54492C200.613 8.1582 200.912 7.85645 201.27 7.63965C201.633 7.42285 202.052 7.31445 202.526 7.31445C202.655 7.31445 202.793 7.32617 202.939 7.34961C203.092 7.37305 203.206 7.39941 203.282 7.42871ZM206.877 7.49023V17H204.75V7.49023H206.877ZM204.609 4.99414C204.609 4.67187 204.715 4.40527 204.926 4.19434C205.143 3.97754 205.441 3.86914 205.822 3.86914C206.197 3.86914 206.493 3.97754 206.71 4.19434C206.927 4.40527 207.035 4.67187 207.035 4.99414C207.035 5.31055 206.927 5.57422 206.71 5.78516C206.493 5.99609 206.197 6.10156 205.822 6.10156C205.441 6.10156 205.143 5.99609 204.926 5.78516C204.715 5.57422 204.609 5.31055 204.609 4.99414ZM215.288 7.49023H217.213V16.7363C217.213 17.5918 217.031 18.3184 216.668 18.916C216.305 19.5137 215.798 19.9678 215.147 20.2783C214.497 20.5947 213.744 20.7529 212.889 20.7529C212.525 20.7529 212.121 20.7002 211.676 20.5947C211.236 20.4893 210.809 20.3193 210.393 20.085C209.982 19.8564 209.64 19.5547 209.364 19.1797L210.357 17.9316C210.697 18.3359 211.072 18.6318 211.482 18.8193C211.893 19.0068 212.323 19.1006 212.774 19.1006C213.261 19.1006 213.674 19.0098 214.014 18.8281C214.359 18.6523 214.626 18.3916 214.813 18.0459C215.001 17.7002 215.095 17.2783 215.095 16.7803V9.64355L215.288 7.49023ZM208.828 12.3506V12.166C208.828 11.4453 208.916 10.7891 209.092 10.1973C209.268 9.59961 209.52 9.08691 209.848 8.65918C210.176 8.22559 210.574 7.89453 211.043 7.66602C211.512 7.43164 212.042 7.31445 212.634 7.31445C213.249 7.31445 213.773 7.42578 214.207 7.64844C214.646 7.87109 215.013 8.19043 215.306 8.60645C215.599 9.0166 215.827 9.50879 215.991 10.083C216.161 10.6514 216.287 11.2842 216.369 11.9814V12.5703C216.293 13.25 216.164 13.8711 215.982 14.4336C215.801 14.9961 215.561 15.4824 215.262 15.8926C214.963 16.3027 214.594 16.6191 214.154 16.8418C213.721 17.0645 213.208 17.1758 212.616 17.1758C212.036 17.1758 211.512 17.0557 211.043 16.8154C210.58 16.5752 210.182 16.2383 209.848 15.8047C209.52 15.3711 209.268 14.8613 209.092 14.2754C208.916 13.6836 208.828 13.042 208.828 12.3506ZM210.946 12.166V12.3506C210.946 12.7842 210.987 13.1885 211.069 13.5635C211.157 13.9385 211.289 14.2695 211.465 14.5566C211.646 14.8379 211.875 15.0605 212.15 15.2246C212.432 15.3828 212.763 15.4619 213.144 15.4619C213.642 15.4619 214.049 15.3564 214.365 15.1455C214.688 14.9346 214.934 14.6504 215.104 14.293C215.279 13.9297 215.402 13.5254 215.473 13.0801V11.4893C215.438 11.1436 215.364 10.8213 215.253 10.5225C215.147 10.2236 215.004 9.96289 214.822 9.74023C214.641 9.51172 214.412 9.33594 214.137 9.21289C213.861 9.08398 213.536 9.01953 213.161 9.01953C212.78 9.01953 212.449 9.10156 212.168 9.26562C211.887 9.42969 211.655 9.65527 211.474 9.94238C211.298 10.2295 211.166 10.5635 211.078 10.9443C210.99 11.3252 210.946 11.7324 210.946 12.166ZM221.502 3.5V17H219.393V3.5H221.502ZM221.133 11.8936L220.447 11.8848C220.453 11.2285 220.544 10.6221 220.72 10.0654C220.901 9.50879 221.153 9.02539 221.476 8.61523C221.804 8.19922 222.196 7.87988 222.653 7.65723C223.11 7.42871 223.617 7.31445 224.174 7.31445C224.643 7.31445 225.064 7.37891 225.439 7.50781C225.82 7.63672 226.148 7.84473 226.424 8.13184C226.699 8.41309 226.907 8.78223 227.048 9.23926C227.194 9.69043 227.268 10.2412 227.268 10.8916V17H225.141V10.874C225.141 10.417 225.073 10.0537 224.938 9.78418C224.81 9.51465 224.619 9.32129 224.367 9.2041C224.115 9.08105 223.808 9.01953 223.444 9.01953C223.063 9.01953 222.727 9.0957 222.434 9.24805C222.146 9.40039 221.906 9.6084 221.713 9.87207C221.52 10.1357 221.373 10.4404 221.273 10.7861C221.18 11.1318 221.133 11.501 221.133 11.8936ZM233.771 7.49023V9.03711H228.41V7.49023H233.771ZM229.957 5.16113H232.075V14.3721C232.075 14.665 232.116 14.8906 232.198 15.0488C232.286 15.2012 232.406 15.3037 232.559 15.3564C232.711 15.4092 232.89 15.4355 233.095 15.4355C233.241 15.4355 233.382 15.4268 233.517 15.4092C233.651 15.3916 233.76 15.374 233.842 15.3564L233.851 16.9736C233.675 17.0264 233.47 17.0732 233.235 17.1143C233.007 17.1553 232.743 17.1758 232.444 17.1758C231.958 17.1758 231.527 17.0908 231.152 16.9209C230.777 16.7451 230.484 16.4609 230.273 16.0684C230.062 15.6758 229.957 15.1543 229.957 14.5039V5.16113ZM240.741 14.4248C240.741 14.2139 240.688 14.0234 240.583 13.8535C240.478 13.6777 240.275 13.5195 239.977 13.3789C239.684 13.2383 239.25 13.1094 238.676 12.9922C238.172 12.8809 237.709 12.749 237.287 12.5967C236.871 12.4385 236.514 12.248 236.215 12.0254C235.916 11.8027 235.685 11.5391 235.521 11.2344C235.356 10.9297 235.274 10.5781 235.274 10.1797C235.274 9.79297 235.359 9.42676 235.529 9.08105C235.699 8.73535 235.942 8.43066 236.259 8.16699C236.575 7.90332 236.959 7.69531 237.41 7.54297C237.867 7.39063 238.377 7.31445 238.939 7.31445C239.736 7.31445 240.419 7.44922 240.987 7.71875C241.562 7.98242 242.001 8.34277 242.306 8.7998C242.61 9.25098 242.763 9.76074 242.763 10.3291H240.645C240.645 10.0771 240.58 9.84277 240.451 9.62598C240.328 9.40332 240.141 9.22461 239.889 9.08984C239.637 8.94922 239.32 8.87891 238.939 8.87891C238.576 8.87891 238.274 8.9375 238.034 9.05469C237.8 9.16602 237.624 9.3125 237.507 9.49414C237.396 9.67578 237.34 9.875 237.34 10.0918C237.34 10.25 237.369 10.3936 237.428 10.5225C237.492 10.6455 237.598 10.7598 237.744 10.8652C237.891 10.9648 238.09 11.0586 238.342 11.1465C238.6 11.2344 238.922 11.3193 239.309 11.4014C240.035 11.5537 240.659 11.75 241.181 11.9902C241.708 12.2246 242.112 12.5293 242.394 12.9043C242.675 13.2734 242.815 13.7422 242.815 14.3105C242.815 14.7324 242.725 15.1191 242.543 15.4707C242.367 15.8164 242.109 16.1182 241.77 16.376C241.43 16.6279 241.022 16.8242 240.548 16.9648C240.079 17.1055 239.552 17.1758 238.966 17.1758C238.104 17.1758 237.375 17.0234 236.777 16.7188C236.18 16.4082 235.726 16.0127 235.415 15.5322C235.11 15.0459 234.958 14.542 234.958 14.0205H237.006C237.029 14.4131 237.138 14.7266 237.331 14.9609C237.53 15.1895 237.776 15.3564 238.069 15.4619C238.368 15.5615 238.676 15.6113 238.992 15.6113C239.373 15.6113 239.692 15.5615 239.95 15.4619C240.208 15.3564 240.404 15.2158 240.539 15.04C240.674 14.8584 240.741 14.6533 240.741 14.4248ZM251.279 9.30078V17H249.161V7.49023H251.183L251.279 9.30078ZM254.188 7.42871L254.171 9.39746C254.042 9.37402 253.901 9.35645 253.749 9.34473C253.603 9.33301 253.456 9.32715 253.31 9.32715C252.946 9.32715 252.627 9.37988 252.352 9.48535C252.076 9.58496 251.845 9.73145 251.657 9.9248C251.476 10.1123 251.335 10.3408 251.235 10.6104C251.136 10.8799 251.077 11.1816 251.06 11.5156L250.576 11.5508C250.576 10.9531 250.635 10.3994 250.752 9.88965C250.869 9.37988 251.045 8.93164 251.279 8.54492C251.52 8.1582 251.818 7.85645 252.176 7.63965C252.539 7.42285 252.958 7.31445 253.433 7.31445C253.562 7.31445 253.699 7.32617 253.846 7.34961C253.998 7.37305 254.112 7.39941 254.188 7.42871ZM259.532 17.1758C258.829 17.1758 258.193 17.0615 257.625 16.833C257.062 16.5986 256.582 16.2734 256.184 15.8574C255.791 15.4414 255.489 14.9521 255.278 14.3896C255.067 13.8271 254.962 13.2207 254.962 12.5703V12.2188C254.962 11.4746 255.07 10.8008 255.287 10.1973C255.504 9.59375 255.806 9.07812 256.192 8.65039C256.579 8.2168 257.036 7.88574 257.563 7.65723C258.091 7.42871 258.662 7.31445 259.277 7.31445C259.957 7.31445 260.552 7.42871 261.062 7.65723C261.571 7.88574 261.993 8.20801 262.327 8.62402C262.667 9.03418 262.919 9.52344 263.083 10.0918C263.253 10.6602 263.338 11.2871 263.338 11.9727V12.8779H255.99V11.3574H261.246V11.1904C261.234 10.8096 261.158 10.4521 261.018 10.1182C260.883 9.78418 260.675 9.51465 260.394 9.30957C260.112 9.10449 259.737 9.00195 259.269 9.00195C258.917 9.00195 258.604 9.07812 258.328 9.23047C258.059 9.37695 257.833 9.59082 257.651 9.87207C257.47 10.1533 257.329 10.4932 257.229 10.8916C257.136 11.2842 257.089 11.7266 257.089 12.2188V12.5703C257.089 12.9863 257.145 13.373 257.256 13.7305C257.373 14.082 257.543 14.3896 257.766 14.6533C257.988 14.917 258.258 15.125 258.574 15.2773C258.891 15.4238 259.251 15.4971 259.655 15.4971C260.165 15.4971 260.619 15.3945 261.018 15.1895C261.416 14.9844 261.762 14.6943 262.055 14.3193L263.171 15.4004C262.966 15.6992 262.699 15.9863 262.371 16.2617C262.043 16.5312 261.642 16.751 261.167 16.9209C260.698 17.0908 260.153 17.1758 259.532 17.1758ZM270.325 14.4248C270.325 14.2139 270.272 14.0234 270.167 13.8535C270.062 13.6777 269.859 13.5195 269.561 13.3789C269.268 13.2383 268.834 13.1094 268.26 12.9922C267.756 12.8809 267.293 12.749 266.871 12.5967C266.455 12.4385 266.098 12.248 265.799 12.0254C265.5 11.8027 265.269 11.5391 265.104 11.2344C264.94 10.9297 264.858 10.5781 264.858 10.1797C264.858 9.79297 264.943 9.42676 265.113 9.08105C265.283 8.73535 265.526 8.43066 265.843 8.16699C266.159 7.90332 266.543 7.69531 266.994 7.54297C267.451 7.39063 267.961 7.31445 268.523 7.31445C269.32 7.31445 270.003 7.44922 270.571 7.71875C271.146 7.98242 271.585 8.34277 271.89 8.7998C272.194 9.25098 272.347 9.76074 272.347 10.3291H270.229C270.229 10.0771 270.164 9.84277 270.035 9.62598C269.912 9.40332 269.725 9.22461 269.473 9.08984C269.221 8.94922 268.904 8.87891 268.523 8.87891C268.16 8.87891 267.858 8.9375 267.618 9.05469C267.384 9.16602 267.208 9.3125 267.091 9.49414C266.979 9.67578 266.924 9.875 266.924 10.0918C266.924 10.25 266.953 10.3936 267.012 10.5225C267.076 10.6455 267.182 10.7598 267.328 10.8652C267.475 10.9648 267.674 11.0586 267.926 11.1465C268.184 11.2344 268.506 11.3193 268.893 11.4014C269.619 11.5537 270.243 11.75 270.765 11.9902C271.292 12.2246 271.696 12.5293 271.978 12.9043C272.259 13.2734 272.399 13.7422 272.399 14.3105C272.399 14.7324 272.309 15.1191 272.127 15.4707C271.951 15.8164 271.693 16.1182 271.354 16.376C271.014 16.6279 270.606 16.8242 270.132 16.9648C269.663 17.1055 269.136 17.1758 268.55 17.1758C267.688 17.1758 266.959 17.0234 266.361 16.7188C265.764 16.4082 265.31 16.0127 264.999 15.5322C264.694 15.0459 264.542 14.542 264.542 14.0205H266.59C266.613 14.4131 266.722 14.7266 266.915 14.9609C267.114 15.1895 267.36 15.3564 267.653 15.4619C267.952 15.5615 268.26 15.6113 268.576 15.6113C268.957 15.6113 269.276 15.5615 269.534 15.4619C269.792 15.3564 269.988 15.2158 270.123 15.04C270.258 14.8584 270.325 14.6533 270.325 14.4248ZM278.446 17.1758C277.743 17.1758 277.107 17.0615 276.539 16.833C275.977 16.5986 275.496 16.2734 275.098 15.8574C274.705 15.4414 274.403 14.9521 274.192 14.3896C273.981 13.8271 273.876 13.2207 273.876 12.5703V12.2188C273.876 11.4746 273.984 10.8008 274.201 10.1973C274.418 9.59375 274.72 9.07812 275.106 8.65039C275.493 8.2168 275.95 7.88574 276.478 7.65723C277.005 7.42871 277.576 7.31445 278.191 7.31445C278.871 7.31445 279.466 7.42871 279.976 7.65723C280.485 7.88574 280.907 8.20801 281.241 8.62402C281.581 9.03418 281.833 9.52344 281.997 10.0918C282.167 10.6602 282.252 11.2871 282.252 11.9727V12.8779H274.904V11.3574H280.16V11.1904C280.148 10.8096 280.072 10.4521 279.932 10.1182C279.797 9.78418 279.589 9.51465 279.308 9.30957C279.026 9.10449 278.651 9.00195 278.183 9.00195C277.831 9.00195 277.518 9.07812 277.242 9.23047C276.973 9.37695 276.747 9.59082 276.565 9.87207C276.384 10.1533 276.243 10.4932 276.144 10.8916C276.05 11.2842 276.003 11.7266 276.003 12.2188V12.5703C276.003 12.9863 276.059 13.373 276.17 13.7305C276.287 14.082 276.457 14.3896 276.68 14.6533C276.902 14.917 277.172 15.125 277.488 15.2773C277.805 15.4238 278.165 15.4971 278.569 15.4971C279.079 15.4971 279.533 15.3945 279.932 15.1895C280.33 14.9844 280.676 14.6943 280.969 14.3193L282.085 15.4004C281.88 15.6992 281.613 15.9863 281.285 16.2617C280.957 16.5312 280.556 16.751 280.081 16.9209C279.612 17.0908 279.067 17.1758 278.446 17.1758ZM286.031 9.30078V17H283.913V7.49023H285.935L286.031 9.30078ZM288.94 7.42871L288.923 9.39746C288.794 9.37402 288.653 9.35645 288.501 9.34473C288.354 9.33301 288.208 9.32715 288.062 9.32715C287.698 9.32715 287.379 9.37988 287.104 9.48535C286.828 9.58496 286.597 9.73145 286.409 9.9248C286.228 10.1123 286.087 10.3408 285.987 10.6104C285.888 10.8799 285.829 11.1816 285.812 11.5156L285.328 11.5508C285.328 10.9531 285.387 10.3994 285.504 9.88965C285.621 9.37988 285.797 8.93164 286.031 8.54492C286.271 8.1582 286.57 7.85645 286.928 7.63965C287.291 7.42285 287.71 7.31445 288.185 7.31445C288.313 7.31445 288.451 7.32617 288.598 7.34961C288.75 7.37305 288.864 7.39941 288.94 7.42871ZM293.52 15.3213L295.849 7.49023H298.046L294.741 17H293.37L293.52 15.3213ZM291.735 7.49023L294.108 15.3564L294.223 17H292.852L289.529 7.49023H291.735ZM303.425 17.1758C302.722 17.1758 302.086 17.0615 301.518 16.833C300.955 16.5986 300.475 16.2734 300.076 15.8574C299.684 15.4414 299.382 14.9521 299.171 14.3896C298.96 13.8271 298.854 13.2207 298.854 12.5703V12.2188C298.854 11.4746 298.963 10.8008 299.18 10.1973C299.396 9.59375 299.698 9.07812 300.085 8.65039C300.472 8.2168 300.929 7.88574 301.456 7.65723C301.983 7.42871 302.555 7.31445 303.17 7.31445C303.85 7.31445 304.444 7.42871 304.954 7.65723C305.464 7.88574 305.886 8.20801 306.22 8.62402C306.56 9.03418 306.812 9.52344 306.976 10.0918C307.146 10.6602 307.23 11.2871 307.23 11.9727V12.8779H299.883V11.3574H305.139V11.1904C305.127 10.8096 305.051 10.4521 304.91 10.1182C304.775 9.78418 304.567 9.51465 304.286 9.30957C304.005 9.10449 303.63 9.00195 303.161 9.00195C302.81 9.00195 302.496 9.07812 302.221 9.23047C301.951 9.37695 301.726 9.59082 301.544 9.87207C301.362 10.1533 301.222 10.4932 301.122 10.8916C301.028 11.2842 300.981 11.7266 300.981 12.2188V12.5703C300.981 12.9863 301.037 13.373 301.148 13.7305C301.266 14.082 301.436 14.3896 301.658 14.6533C301.881 14.917 302.15 15.125 302.467 15.2773C302.783 15.4238 303.144 15.4971 303.548 15.4971C304.058 15.4971 304.512 15.3945 304.91 15.1895C305.309 14.9844 305.654 14.6943 305.947 14.3193L307.063 15.4004C306.858 15.6992 306.592 15.9863 306.264 16.2617C305.936 16.5312 305.534 16.751 305.06 16.9209C304.591 17.0908 304.046 17.1758 303.425 17.1758ZM314.684 15.0312V3.5H316.811V17H314.886L314.684 15.0312ZM308.496 12.3506V12.166C308.496 11.4453 308.581 10.7891 308.751 10.1973C308.921 9.59961 309.167 9.08691 309.489 8.65918C309.812 8.22559 310.204 7.89453 310.667 7.66602C311.13 7.43164 311.651 7.31445 312.231 7.31445C312.806 7.31445 313.31 7.42578 313.743 7.64844C314.177 7.87109 314.546 8.19043 314.851 8.60645C315.155 9.0166 315.398 9.50879 315.58 10.083C315.762 10.6514 315.891 11.2842 315.967 11.9814V12.5703C315.891 13.25 315.762 13.8711 315.58 14.4336C315.398 14.9961 315.155 15.4824 314.851 15.8926C314.546 16.3027 314.174 16.6191 313.734 16.8418C313.301 17.0645 312.794 17.1758 312.214 17.1758C311.64 17.1758 311.121 17.0557 310.658 16.8154C310.201 16.5752 309.812 16.2383 309.489 15.8047C309.167 15.3711 308.921 14.8613 308.751 14.2754C308.581 13.6836 308.496 13.042 308.496 12.3506ZM310.614 12.166V12.3506C310.614 12.7842 310.652 13.1885 310.729 13.5635C310.811 13.9385 310.937 14.2695 311.106 14.5566C311.276 14.8379 311.496 15.0605 311.766 15.2246C312.041 15.3828 312.369 15.4619 312.75 15.4619C313.23 15.4619 313.626 15.3564 313.937 15.1455C314.247 14.9346 314.49 14.6504 314.666 14.293C314.848 13.9297 314.971 13.5254 315.035 13.0801V11.4893C315 11.1436 314.927 10.8213 314.815 10.5225C314.71 10.2236 314.566 9.96289 314.385 9.74023C314.203 9.51172 313.978 9.33594 313.708 9.21289C313.444 9.08398 313.131 9.01953 312.768 9.01953C312.381 9.01953 312.053 9.10156 311.783 9.26562C311.514 9.42969 311.291 9.65527 311.115 9.94238C310.945 10.2295 310.819 10.5635 310.737 10.9443C310.655 11.3252 310.614 11.7324 310.614 12.166ZM319.113 15.9453C319.113 15.6172 319.225 15.3418 319.447 15.1191C319.67 14.8906 319.972 14.7764 320.353 14.7764C320.739 14.7764 321.041 14.8906 321.258 15.1191C321.48 15.3418 321.592 15.6172 321.592 15.9453C321.592 16.2734 321.48 16.5488 321.258 16.7715C321.041 16.9941 320.739 17.1055 320.353 17.1055C319.972 17.1055 319.67 16.9941 319.447 16.7715C319.225 16.5488 319.113 16.2734 319.113 15.9453Z" fill="#00194A"/>
</svg>
